<svg width="1050" height="953" viewBox="0 0 1050 953" fill="none" xmlns="http://www.w3.org/2000/svg">
<path d="M40.6638 17.0687C40.6638 7.82096 48.1606 0.324219 57.4083 0.324219H114.669C118.632 0.324219 121.845 3.53711 121.845 7.50041V12.8948C121.845 16.8581 118.632 20.071 114.669 20.071H40.6638V17.0687Z" fill="white"/>
<path d="M40.6638 49.6907H105.389C110.842 49.6907 115.263 54.1111 115.263 59.5641V59.5641C115.263 65.017 110.842 69.4375 105.389 69.4375H40.6638V49.6907Z" fill="white"/>
<path d="M47.2458 101.253H111.971C117.424 101.253 121.845 105.674 121.845 111.127V111.127C121.845 116.58 117.424 121 111.971 121H61.5982C53.6716 121 47.2458 114.574 47.2458 106.648V101.253Z" fill="white"/>
<path d="M40.6638 20.0679H62.6047V120.996H55.0162C47.0896 120.996 40.6638 114.57 40.6638 106.644V20.0679Z" fill="white"/>
<path d="M144.335 11.8398H153.218C159.824 11.8398 165.179 17.1947 165.179 23.8002V35.152H175.51C183.436 35.152 189.862 41.5778 189.862 49.5044V52.4305H165.179V91.3755C165.179 97.7373 170.336 102.894 176.698 102.894H180.294C185.578 102.894 189.862 107.178 189.862 112.463V120.996H171.212C156.368 120.996 144.335 108.962 144.335 94.1181V52.4305H141.287C136.003 52.4305 131.719 48.1466 131.719 42.8622V35.152H144.335V11.8398Z" fill="white"/>
<path d="M200.931 64.9363H283.458V72.1125V72.1125C283.458 76.7363 279.709 80.4847 275.085 80.4847H200.931V64.9363Z" fill="white"/>
<path d="M205.715 50.5876V50.5876C213.174 37.9084 226.547 29.8694 241.243 29.2305L241.686 29.2112C244.014 29.11 246.346 29.2192 248.654 29.5376L249.672 29.678C267.446 32.1296 281.307 46.3016 283.364 64.1259L283.458 64.94V67.3321L260.733 64.94L259.537 58.9599V58.9599C258.037 54.4608 254.442 50.9728 249.9 49.6101L247.432 48.8697C245.949 48.425 244.392 48.2889 242.854 48.4697V48.4697C232.589 49.6774 224.852 58.3777 224.852 68.7143V72.1162L225.703 84.0321C225.928 87.1767 227.103 90.1789 229.072 92.6407V92.6407C230.238 94.0987 231.623 95.368 233.176 96.4036L235.307 97.8241C237.068 98.9983 239.138 99.6249 241.255 99.6249H246.552C250.181 99.6249 253.57 97.8113 255.583 94.792L256.006 94.1575C256.757 93.0312 257.26 91.7583 257.482 90.423L258.341 85.2726H282.262L281.247 91.8683C280.348 97.7121 277.78 103.172 273.852 107.591V107.591C271.502 110.234 268.714 112.451 265.61 114.144L262.001 116.112C258.799 117.859 255.267 118.918 251.632 119.221L242.792 119.957L240.711 119.89C220.496 119.238 203.695 104.112 200.931 84.0765V84.0765L200.53 80.8626C199.232 70.4803 201.036 59.9461 205.715 50.5876V50.5876Z" fill="white"/>
<path d="M299.006 50.5876V50.5876C306.464 37.9084 319.837 29.8694 334.533 29.2305L334.976 29.2112C337.304 29.11 339.636 29.2192 341.944 29.5376L347.759 30.3397C362.605 32.3875 374.045 44.4606 375.289 59.3958V59.3958C375.431 61.0927 374.091 62.548 372.389 62.548H352.827L352.437 60.7909C351.201 55.2289 347.055 50.7695 341.597 49.1323L340.722 48.8697C339.24 48.425 337.682 48.2889 336.145 48.4697V48.4697C325.879 49.6774 318.142 58.3777 318.142 68.7143V72.1162L318.993 84.0321C319.218 87.1767 320.393 90.1789 322.362 92.6407V92.6407C323.529 94.0987 324.913 95.368 326.467 96.4036L328.597 97.8241C330.359 98.9983 332.428 99.6249 334.545 99.6249H339.843C343.471 99.6249 346.86 97.8113 348.873 94.792L350.249 92.7274C350.372 92.5437 350.454 92.3361 350.49 92.1184V92.1184C351.149 88.168 354.566 85.2726 358.571 85.2726H375.552L374.537 91.8683C373.638 97.7121 371.07 103.172 367.142 107.591V107.591C364.793 110.234 362.004 112.451 358.9 114.144L355.292 116.112C352.089 117.859 348.557 118.918 344.922 119.221L336.083 119.957L334.001 119.89C313.787 119.238 296.985 104.112 294.222 84.0765V84.0765L293.82 80.8626C292.522 70.4803 294.327 59.9461 299.006 50.5876V50.5876Z" fill="white"/>
<circle cx="311.701" cy="417.303" r="24.6531" fill="white"/>
<path d="M343.674 349.463C349.127 344.009 381.392 277.215 401.794 234.053C404.517 228.291 412.683 228.211 415.533 233.912L519.062 440.97" stroke="white" stroke-width="47.8413" stroke-linecap="round"/>
<path d="M345.954 880.927C329.606 897.275 329.606 923.78 345.954 940.128C362.302 956.476 388.807 956.476 405.154 940.128L345.954 880.927ZM405.154 940.128C409.601 935.682 412.244 931.003 412.826 930C413.969 928.027 414.965 926.061 415.755 924.434C417.363 921.121 419.095 917.174 420.84 913.028C424.376 904.629 428.786 893.448 433.724 880.593C443.631 854.802 456.253 820.737 469.329 785.466C495.99 713.553 523.742 638.891 536.649 611.356L460.842 575.822C446.019 607.443 416.613 686.813 390.828 756.363C377.682 791.823 365.26 825.346 355.57 850.57C350.709 863.222 346.682 873.405 343.676 880.547C342.15 884.172 341.085 886.54 340.435 887.878C340.097 888.575 340.1 888.518 340.394 888.011C340.545 887.751 340.959 887.048 341.614 886.102C342.126 885.362 343.591 883.291 345.954 880.927L405.154 940.128Z" fill="url(#paint0_linear_314_118)"/>
<path d="M497.55 595.979L616.762 847.862C630.282 876.427 609.446 909.339 577.844 909.339H526.63" stroke="url(#paint1_linear_314_118)" stroke-width="83.7222" stroke-linecap="round"/>
<path d="M237.118 699.479C237.118 760.74 259.649 902.516 156.651 909.517C53.6524 916.518 38.6319 842.421 43.9964 804.498" stroke="url(#paint2_linear_314_118)" stroke-width="83.7222" stroke-linecap="round"/>
<circle cx="236.814" cy="588.801" r="55.0174" fill="#F4F4F4"/>
<path d="M729.579 895.114V587.318C729.579 579.79 739.692 577.338 743.14 584.031L828.866 750.441C838.984 770.082 866.565 771.417 878.532 752.845L995.341 571.568" stroke="url(#paint3_linear_314_118)" stroke-width="83.7222" stroke-linecap="round"/>
<path d="M996.537 578.745V841.871C996.537 878.862 966.55 908.849 929.559 908.849V908.849" stroke="url(#paint4_linear_314_118)" stroke-width="83.7222" stroke-linecap="round"/>
<path d="M996.537 578.745V841.871C996.537 878.862 966.55 908.849 929.559 908.849V908.849" stroke="url(#paint5_linear_314_118)" stroke-width="83.7222" stroke-linecap="round"/>
<path d="M606.754 441.172V211.425C606.754 205.805 614.303 203.975 616.876 208.971L680.525 332.524C688.152 347.33 709.012 348.161 717.792 334.009L795.718 208.413C796.988 206.368 800.143 207.267 800.143 209.675V441.172" stroke="white" stroke-width="47.8413" stroke-linecap="round"/>
<path d="M1026 215.635H878.302" stroke="white" stroke-width="47.8413" stroke-linecap="round"/>
<path d="M877.892 351.983L878.302 215.635" stroke="white" stroke-width="47.8413" stroke-linecap="round"/>
<path d="M1021.41 421.351L877.886 421.351" stroke="white" stroke-width="47.8413" stroke-linecap="round"/>
<path d="M985.531 322.826H878.302" stroke="white" stroke-width="47.8413" stroke-linecap="round"/>
<path d="M217.87 405.667L218.874 404.625V403.178V358.208C218.874 348.564 226.692 340.746 236.336 340.746C245.98 340.746 253.798 348.564 253.798 358.208V418.492L250.64 424.018L245.93 429.186C224.659 451.257 196.77 465.79 166.492 470.579C136.199 475.371 105.169 470.146 78.1143 455.699C51.0599 441.252 29.4584 418.372 16.5899 390.532C3.72136 362.692 0.288633 331.414 6.81293 301.445C13.3372 271.477 29.4622 244.456 52.7394 224.486C76.0167 204.515 105.175 192.685 135.786 190.793C166.192 188.913 187.06 196.765 212.817 213.847C231.179 226.025 242.631 243.082 250.236 264.267C254.112 275.065 246.144 286.523 233.974 287.804C224.431 288.808 215.948 283.028 214.403 274.129C213.64 269.736 212.892 265.555 211.082 261.33C209.242 257.036 206.393 252.874 201.649 248.176C201.027 247.56 200.335 247.005 199.606 246.531C181.454 234.737 157.145 226.978 135.344 228.326C113.018 229.706 94.9789 240.526 78.5754 254.599C61.8534 268.946 50.2696 288.357 45.5826 309.886C40.8957 331.414 43.3617 353.884 52.6062 373.884C61.8508 393.884 77.3688 410.321 96.8043 420.699C116.24 431.078 138.531 434.831 160.293 431.388C181.524 428.03 202.305 421.83 217.87 405.667Z" fill="white" stroke="white" stroke-width="7.17619"/>
<path d="M232.031 356.771H212.894" stroke="white" stroke-width="40.6651" stroke-linecap="round"/>
<defs>
<linearGradient id="paint0_linear_314_118" x1="437.15" y1="593.589" x2="437.15" y2="910.528" gradientUnits="userSpaceOnUse">
<stop stop-color="white"/>
<stop offset="1" stop-color="#B4B4B4"/>
</linearGradient>
<linearGradient id="paint1_linear_314_118" x1="571.704" y1="595.979" x2="571.704" y2="909.339" gradientUnits="userSpaceOnUse">
<stop stop-color="white"/>
<stop offset="1" stop-color="#B4B4B4"/>
</linearGradient>
<linearGradient id="paint2_linear_314_118" x1="141.13" y1="699.479" x2="141.13" y2="909.98" gradientUnits="userSpaceOnUse">
<stop stop-color="white"/>
<stop offset="1" stop-color="#B4B4B4"/>
</linearGradient>
<linearGradient id="paint3_linear_314_118" x1="862.46" y1="557.707" x2="862.46" y2="895.114" gradientUnits="userSpaceOnUse">
<stop stop-color="white"/>
<stop offset="1" stop-color="#B4B4B4"/>
</linearGradient>
<linearGradient id="paint4_linear_314_118" x1="963.048" y1="578.745" x2="963.048" y2="908.849" gradientUnits="userSpaceOnUse">
<stop stop-color="white"/>
<stop offset="1" stop-color="#B4B4B4"/>
</linearGradient>
<linearGradient id="paint5_linear_314_118" x1="963.048" y1="578.745" x2="963.048" y2="908.849" gradientUnits="userSpaceOnUse">
<stop stop-color="white"/>
<stop offset="1" stop-color="#B4B4B4"/>
</linearGradient>
</defs>
</svg>
