<svg width="960" height="502" viewBox="0 0 960 502" fill="none" xmlns="http://www.w3.org/2000/svg">
<path d="M546.527 192.636L657.473 237.836L772.527 200.855V110.455M739.655 50.8727L821.836 81.6909L657.473 149.491M739.655 50.8727L657.473 18L489 83.7455L575.291 118.673L739.655 50.8727Z" stroke="white" stroke-width="32.8727"/>
<path d="M655.418 133.054L671.854 141.273L692.4 153.6L651.309 170.036L608.164 149.491L655.418 133.054Z" fill="white"/>
<path d="M523.927 114.564L552.691 126.891L554.746 244H523.927V114.564Z" fill="#DD0000"/>
<path d="M75.0837 169.152V193.496H4.71651V169.152H75.0837ZM20.6918 141.158H53.0987V250.094C53.0987 253.086 53.5552 255.419 54.468 257.092C55.3809 258.715 56.6488 259.856 58.2717 260.516C59.9453 261.175 61.8724 261.505 64.0532 261.505C65.5746 261.505 67.0961 261.378 68.6175 261.124C70.139 260.82 71.3054 260.592 72.1169 260.44L77.2138 284.555C75.5909 285.062 73.3087 285.645 70.3672 286.304C67.4257 287.014 63.8503 287.445 59.641 287.598C51.8308 287.902 44.9843 286.862 39.1014 284.479C33.2691 282.095 28.7301 278.393 25.4843 273.372C22.2386 268.351 20.641 262.012 20.6918 254.354V141.158Z" fill="white"/>
<rect y="169.374" width="20.0832" height="26.7776" fill="white"/>
<path d="M146.516 288.282C134.496 288.282 124.15 285.848 115.478 280.979C106.857 276.06 100.213 269.112 95.5471 260.135C90.8813 251.108 88.5484 240.432 88.5484 228.109C88.5484 216.089 90.8813 205.54 95.5471 196.462C100.213 187.384 106.78 180.31 115.25 175.238C123.77 170.167 133.761 167.631 145.222 167.631C152.931 167.631 160.107 168.873 166.751 171.359C173.445 173.793 179.278 177.47 184.248 182.389C189.269 187.308 193.174 193.496 195.963 200.951C198.752 208.355 200.147 217.027 200.147 226.968V235.868H101.481V215.785H169.642C169.642 211.119 168.628 206.986 166.599 203.385C164.57 199.784 161.756 196.97 158.155 194.941C154.605 192.862 150.472 191.822 145.755 191.822C140.836 191.822 136.474 192.963 132.671 195.245C128.918 197.477 125.976 200.494 123.846 204.298C121.716 208.051 120.626 212.235 120.575 216.85V235.944C120.575 241.726 121.64 246.721 123.77 250.931C125.951 255.14 129.019 258.386 132.975 260.668C136.931 262.95 141.622 264.091 147.048 264.091C150.649 264.091 153.946 263.584 156.938 262.57C159.93 261.555 162.491 260.034 164.621 258.005C166.751 255.977 168.374 253.492 169.49 250.55L199.462 252.528C197.941 259.73 194.822 266.018 190.105 271.394C185.44 276.719 179.404 280.878 172 283.87C164.646 286.811 156.152 288.282 146.516 288.282Z" fill="white"/>
<path d="M269.906 291.629C257.937 291.629 247.642 289.094 239.02 284.022C230.449 278.9 223.856 271.8 219.241 262.722C214.677 253.644 212.395 243.196 212.395 231.38C212.395 219.411 214.702 208.913 219.317 199.886C223.983 190.808 230.602 183.733 239.172 178.661C247.743 173.539 257.937 170.978 269.754 170.978C279.947 170.978 288.873 172.829 296.531 176.531C304.189 180.234 310.25 185.432 314.713 192.126C319.175 198.821 321.635 206.682 322.092 215.709H291.51C290.648 209.877 288.366 205.185 284.664 201.635C281.012 198.035 276.22 196.234 270.286 196.234C265.265 196.234 260.878 197.604 257.126 200.342C253.423 203.03 250.533 206.96 248.453 212.133C246.374 217.306 245.334 223.57 245.334 230.923C245.334 238.378 246.349 244.718 248.377 249.942C250.456 255.165 253.373 259.146 257.126 261.885C260.878 264.624 265.265 265.993 270.286 265.993C273.988 265.993 277.31 265.232 280.252 263.711C283.244 262.189 285.703 259.983 287.631 257.092C289.609 254.151 290.902 250.626 291.51 246.518H322.092C321.584 255.444 319.15 263.305 314.789 270.101C310.478 276.846 304.519 282.12 296.912 285.924C289.304 289.728 280.302 291.629 269.906 291.629Z" fill="white"/>
<path d="M370.017 225.142V292.694H337.61V136.898H369.104V196.462H370.474C373.111 189.565 377.371 184.164 383.254 180.259C389.137 176.303 396.516 174.325 405.391 174.325C413.505 174.325 420.58 176.1 426.615 179.65C432.701 183.15 437.418 188.196 440.765 194.789C444.163 201.331 445.836 209.167 445.786 218.295V292.694H413.379V224.077C413.429 216.875 411.604 211.271 407.901 207.265C404.25 203.258 399.128 201.255 392.535 201.255C388.123 201.255 384.218 202.193 380.82 204.07C377.472 205.946 374.835 208.685 372.908 212.286C371.032 215.836 370.068 220.121 370.017 225.142Z" fill="white"/>
<path d="M507.317 338.656V362.999H436.95V338.656H507.317ZM452.925 310.661H485.332V419.597C485.332 422.589 485.789 424.922 486.702 426.596C487.615 428.219 488.882 429.36 490.505 430.019C492.179 430.678 494.106 431.008 496.287 431.008C497.808 431.008 499.33 430.881 500.851 430.628C502.373 430.323 503.539 430.095 504.351 429.943L509.447 454.058C507.825 454.565 505.542 455.148 502.601 455.808C499.659 456.518 496.084 456.949 491.875 457.101C484.064 457.405 477.218 456.366 471.335 453.982C465.503 451.598 460.964 447.896 457.718 442.875C454.472 437.855 452.875 431.515 452.925 423.857V310.661Z" fill="white"/>
<rect x="432.234" y="338.878" width="20.0832" height="26.7776" fill="white"/>
<path d="M436.447 371.976L406.779 373.801C406.272 371.266 405.181 368.983 403.508 366.955C401.834 364.876 399.628 363.227 396.889 362.01C394.201 360.742 390.981 360.108 387.228 360.108C382.207 360.108 377.973 361.173 374.524 363.303C371.075 365.383 369.351 368.172 369.351 371.671C369.351 374.461 370.467 376.819 372.698 378.746C374.93 380.673 378.759 382.22 384.185 383.387L405.333 387.647C416.694 389.979 425.163 393.732 430.742 398.905C436.32 404.078 439.11 410.874 439.11 419.293C439.11 426.951 436.853 433.671 432.339 439.452C427.876 445.234 421.74 449.747 413.93 452.993C406.17 456.188 397.219 457.786 387.076 457.786C371.608 457.786 359.284 454.565 350.105 448.124C340.976 441.633 335.626 432.808 334.053 421.651L365.928 419.977C366.891 424.694 369.224 428.295 372.926 430.78C376.629 433.214 381.371 434.431 387.152 434.431C392.832 434.431 397.397 433.341 400.845 431.16C404.344 428.929 406.12 426.063 406.17 422.564C406.12 419.622 404.877 417.214 402.443 415.337C400.008 413.41 396.255 411.939 391.184 410.925L370.949 406.893C359.538 404.611 351.043 400.655 345.464 395.026C339.936 389.396 337.172 382.22 337.172 373.497C337.172 365.991 339.201 359.525 343.258 354.099C347.366 348.672 353.122 344.488 360.527 341.547C367.982 338.605 376.705 337.134 386.696 337.134C401.454 337.134 413.067 340.253 421.537 346.491C430.057 352.729 435.027 361.224 436.447 371.976Z" fill="white"/>
<path d="M592.235 404.862V337.765H624.642V454.613H593.528V433.389H592.311C589.674 440.235 585.287 445.738 579.151 449.897C573.065 454.055 565.635 456.134 556.861 456.134C549.051 456.134 542.179 454.359 536.246 450.809C530.312 447.259 525.672 442.213 522.324 435.671C519.028 429.129 517.354 421.293 517.304 412.164V337.765H549.711V406.383C549.761 413.28 551.612 418.732 555.264 422.739C558.915 426.745 563.809 428.748 569.946 428.748C573.851 428.748 577.503 427.861 580.9 426.086C584.298 424.26 587.037 421.572 589.116 418.022C591.246 414.472 592.286 410.085 592.235 404.862Z" fill="white"/>
<path d="M684.207 456.515C675.332 456.515 667.294 454.233 660.092 449.668C652.941 445.053 647.261 438.283 643.052 429.357C638.893 420.38 636.814 409.375 636.814 396.341C636.814 382.953 638.969 371.821 643.28 362.945C647.591 354.02 653.322 347.351 660.473 342.938C667.674 338.475 675.56 336.244 684.131 336.244C690.673 336.244 696.125 337.36 700.487 339.591C704.899 341.772 708.449 344.511 711.137 347.807C713.876 351.053 715.955 354.248 717.375 357.392H718.364V298.816H750.695V454.613H718.744V435.899H717.375C715.853 439.145 713.698 442.365 710.909 445.56C708.17 448.705 704.595 451.317 700.183 453.396C695.821 455.475 690.496 456.515 684.207 456.515ZM694.477 430.726C699.701 430.726 704.113 429.306 707.714 426.466C711.365 423.575 714.155 419.544 716.082 414.371C718.06 409.198 719.049 403.137 719.049 396.189C719.049 389.241 718.085 383.206 716.158 378.084C714.231 372.962 711.441 369.006 707.79 366.217C704.138 363.427 699.701 362.033 694.477 362.033C689.152 362.033 684.664 363.478 681.012 366.369C677.361 369.26 674.597 373.266 672.72 378.388C670.844 383.51 669.906 389.444 669.906 396.189C669.906 402.985 670.844 408.995 672.72 414.218C674.647 419.391 677.411 423.449 681.012 426.39C684.664 429.281 689.152 430.726 694.477 430.726Z" fill="white"/>
<path d="M793.277 497.943V469.178L809.176 469.387C811.965 469.387 814.65 468.934 817.23 468.027C819.81 467.121 822.181 465.865 824.343 464.261C826.574 462.658 828.527 460.74 830.201 458.508C831.874 456.347 833.234 453.976 834.28 451.396C831.142 452.721 827.934 454.046 824.657 455.37C821.449 456.695 818.206 457.358 814.929 457.358C808.025 457.358 801.54 456.138 795.473 453.697C789.407 451.256 784.072 447.804 779.47 443.341C774.937 438.809 771.346 433.335 768.696 426.919C766.116 420.434 764.826 413.182 764.826 405.163V343.239H793.277V405.163C793.277 409.137 793.835 412.624 794.95 415.623C796.136 418.551 797.705 421.027 799.657 423.049C801.61 425.002 803.876 426.466 806.456 427.442C809.106 428.419 811.93 428.907 814.929 428.907C817.858 428.907 820.612 428.244 823.192 426.919C825.842 425.525 828.143 423.712 830.096 421.48C832.048 419.249 833.583 416.738 834.698 413.949C835.814 411.09 836.372 408.161 836.372 405.163V343.239H865.137V441.145C865.067 449.025 863.533 456.416 860.535 463.32C857.536 470.224 853.422 476.256 848.192 481.416C843.031 486.576 837 490.656 830.096 493.654C823.192 496.653 815.801 498.152 807.921 498.152L793.277 497.943Z" fill="white"/>
</svg>
